<svg xmlns="http://www.w3.org/2000/svg" width="18" height="20" viewBox="0 0 18 20"><path fill="#0E936E" fill-rule="evenodd" d="M3.768 8.32C6.333 2.776 7.666.67 11.858.758c1.494.03 1.134-1.086 2.272-.662 1.139.424.162 1.044 1.327 2.003 3.265 2.691 2.964 5.182 1.449 11.116-.639 2.5 1.538 2.623.677 5.045-.63 1.767-5.263 2.507-10.154.684C2.539 17.123-.547 13.506.08 11.74c.861-2.424 2.605-1.086 3.687-3.42zm4.192 9.13c4.367 1.628 7.956.671 8.108.246.26-.734-1.41-3.182-6.403-5.042-4.994-1.86-7.78-1.171-8.071-.351-.173.483 1.997 3.52 6.366 5.147zm1.402-3.947c2.283.85 3.871 1.824 4.897 2.7-.722.66-2.076.82-3.426.317-1.719-.64-2.774-2.109-2.356-3.282.004-.014.012-.026.017-.04.282.093.57.194.868.305z"/></svg>