<svg xmlns="http://www.w3.org/2000/svg" width="23" height="16" viewBox="0 0 23 16"><g fill="#8D88A5"><path d="M20.117.515H2.339A2.343 2.343 0 0 0 0 2.854v10.292c0 1.29 1.05 2.34 2.34 2.34h17.777c1.29 0 2.34-1.05 2.34-2.34V2.854c0-1.29-1.05-2.34-2.34-2.34zm1.403 12.631c0 .774-.63 1.404-1.403 1.404H2.339c-.774 0-1.403-.63-1.403-1.404V2.854c0-.774.63-1.404 1.403-1.404h17.778c.774 0 1.403.63 1.403 1.404v10.292z"/><path d="M21.988 3.322H.468A.468.468 0 0 0 0 3.789v2.807c0 .259.21.468.468.468h21.52c.259 0 .468-.21.468-.468V3.79a.468.468 0 0 0-.468-.467zm-.468 2.807H.936V4.257H21.52V6.13zM8.889 9.871H3.275a.468.468 0 0 0 0 .936h5.614a.468.468 0 0 0 0-.936zm0 1.872H3.275a.468.468 0 0 0 0 .935h5.614a.468.468 0 0 0 0-.935zm9.357-2.807h-.936c-.774 0-1.404.63-1.404 1.403v.936c0 .774.63 1.403 1.404 1.403h.936c.773 0 1.403-.63 1.403-1.403v-.936c0-.774-.63-1.403-1.403-1.403zm.467 2.339c0 .258-.21.468-.467.468h-.936a.468.468 0 0 1-.468-.468v-.936c0-.258.21-.468.468-.468h.936c.258 0 .467.21.467.468v.936z"/></g></svg>