<svg xmlns="http://www.w3.org/2000/svg" width="23" height="23" viewBox="0 0 23 23"><g fill="none" fill-rule="evenodd"><rect width="21.5" height="21.5" x=".75" y=".75" stroke="#6F5AFF" stroke-width="1.5" rx="4"/><path fill="#6F5AFF" fill-rule="nonzero" d="M14.928 10.381a.44.44 0 0 1-.069.47l-3.033 3.5a.43.43 0 0 1-.652 0l-3.033-3.5a.44.44 0 0 1-.069-.47.433.433 0 0 1 .395-.256H10.2V4.437c0-.241.194-.437.433-.437h1.734c.239 0 .433.196.433.438v5.687h1.733c.17 0 .324.1.395.256zm1.339 3.244H18v3.5a.87.87 0 0 1-.867.875H5.867A.87.87 0 0 1 5 17.125v-3.5h1.733v2.625h9.534v-2.625z"/></g></svg>