<svg xmlns="http://www.w3.org/2000/svg" width="23" height="20" viewBox="0 0 23 20"><g fill="#6F5AFF"><path d="M6 14a1 1 0 1 0 0 2 1 1 0 0 0 0-2z"/><path d="M4 14a1 1 0 1 0 0 2 1 1 0 0 0 0-2zm5 0a1 1 0 1 0-.002 1.998A1 1 0 0 0 9 14zm3 0a1 1 0 1 0 0 2 1 1 0 0 0 0-2zM1 14c-.263 0-.521.106-.708.293A1.009 1.009 0 0 0 0 15c0 .263.107.521.292.707C.48 15.893.737 16 1 16c.263 0 .521-.107.707-.293.186-.186.293-.444.293-.707a1.003 1.003 0 0 0-1-1zm0-6a1 1 0 1 0 0 2 1 1 0 0 0 0-2zm0-3a1 1 0 1 0 0 2 1 1 0 0 0 0-2zm0-2a1 1 0 1 0 0 2 1 1 0 0 0 0-2zm0 8a1 1 0 1 0 0 2 1 1 0 0 0 0-2zM1 0a1.01 1.01 0 0 0-.708.292A1.011 1.011 0 0 0 0 1c0 .263.107.521.292.707C.48 1.893.737 2 1 2c.263 0 .52-.107.707-.293A1.01 1.01 0 0 0 2 1a1.01 1.01 0 0 0-.293-.708A1.007 1.007 0 0 0 1 0zm11 2a1 1 0 1 0 0-2 1 1 0 0 0 0 2zm3 0a1 1 0 1 0 0-2 1 1 0 0 0 0 2zM6 0a1 1 0 1 0 0 2 1 1 0 0 0 0-2z"/><path d="M4 0a1 1 0 1 0 0 2 1 1 0 0 0 0-2zm5 0a.999.999 0 1 0 0 2 1 1 0 0 0 0-2zm9 2c.263 0 .521-.107.707-.293.186-.186.293-.444.293-.707 0-.264-.107-.522-.293-.708a1.005 1.005 0 0 0-1.414 0A1.01 1.01 0 0 0 17 1c0 .263.107.52.293.707.186.186.444.293.707.293zm0 5a1 1 0 1 0 0-2 1 1 0 0 0 0 2zm0-2a1 1 0 1 0 0-2 1 1 0 0 0 0 2zm0 5a1 1 0 1 0 0-2 1 1 0 0 0 0 2zm4.474 2.455l-9.397-3.407a.807.807 0 0 0-.84.183.79.79 0 0 0-.19.831l3.402 9.411a.801.801 0 0 0 .754.527.802.802 0 0 0 .744-.498l1.276-3.148 2.683 2.687a.803.803 0 0 0 1.134.006.79.79 0 0 0 .006-1.123l-2.7-2.705 3.157-1.283a.794.794 0 0 0 .497-.75.795.795 0 0 0-.526-.731zM17.63 14.2a.798.798 0 0 0-.44.439l-.944 2.33-2.113-5.846 5.85 2.12-2.353.957z"/></g></svg>