<svg xmlns="http://www.w3.org/2000/svg" width="17" height="17" viewBox="0 0 17 17"><g fill="none"><path fill="#49B194" d="M14.493 14.534a8.434 8.434 0 0 1-6.002 2.486 8.487 8.487 0 0 1-4.298-1.167.56.56 0 0 0-.272-.076.564.564 0 0 0-.333.112c-1.227.95-2.462 1.091-3.003 1.103.645-.481 1.186-1.227 1.64-2.265a.545.545 0 0 0-.093-.578c-2.967-3.352-2.81-8.46.357-11.627A8.434 8.434 0 0 1 8.491.036a8.43 8.43 0 0 1 6.002 2.486c3.312 3.316 3.312 8.704 0 12.012z"/><path fill="#FFF" d="M12.5 5.373H4.483c-.3 0-.541.24-.541.54 0 .302.24.542.54.542h8.02a.542.542 0 0 0 0-1.083zm0 2.617H4.483a.54.54 0 0 0-.541.542c0 .3.24.541.54.541h8.02a.542.542 0 0 0 0-1.083zm0 2.619H4.483c-.3 0-.541.24-.541.541 0 .3.24.542.54.542h8.02a.542.542 0 1 0 0-1.083z"/></g></svg>