<svg xmlns="http://www.w3.org/2000/svg" xmlns:xlink="http://www.w3.org/1999/xlink" width="18" height="15" viewBox="0 0 18 15"><defs><path id="a" d="M0 11L16 0"/></defs><g fill="none" fill-rule="evenodd"><path fill="#7f7b97" d="M9.25 2C5.5 2 2.298 4.333 1 7.625c1.298 3.293 4.5 5.625 8.25 5.625s6.953-2.332 8.25-5.625C16.203 4.333 13 2 9.25 2zm0 9.375c-2.07 0-3.75-1.68-3.75-3.75 0-2.07 1.68-3.75 3.75-3.75 2.07 0 3.75 1.68 3.75 3.75 0 2.07-1.68 3.75-3.75 3.75zm0-6A2.247 2.247 0 0 0 7 7.625a2.247 2.247 0 0 0 2.25 2.25 2.247 2.247 0 0 0 2.25-2.25 2.247 2.247 0 0 0-2.25-2.25z"/><g transform="translate(1 2)"><use stroke="#FFF" stroke-width="3" xlink:href="#a"/><use stroke="#7f7b97" xlink:href="#a"/></g></g></svg>