<svg xmlns="http://www.w3.org/2000/svg" width="24" height="24" viewBox="0 0 24 24"><g fill="#49B194" fill-rule="evenodd"><path d="M11.92-.02C5.426-.02.142 5.332.142 11.908c0 6.575 5.284 11.925 11.778 11.925 6.494 0 11.778-5.35 11.778-11.925C23.698 5.33 18.414-.02 11.92-.02zm0 21.929c-5.447 0-9.88-4.487-9.88-10.002 0-5.518 4.433-10.005 9.88-10.005 5.448 0 9.879 4.49 9.879 10.005 0 5.515-4.431 10.002-9.879 10.002z"/><path d="M15.674 8.103l-5.497 5.568-2.013-2.038a.94.94 0 0 0-1.34 0 .968.968 0 0 0 0 1.359l2.682 2.718a.943.943 0 0 0 1.343 0l6.168-6.248a.968.968 0 0 0 0-1.359.943.943 0 0 0-1.343 0z"/></g></svg>