<svg xmlns="http://www.w3.org/2000/svg" width="16" height="16" viewBox="0 0 16 16"><path fill="#4285F4" d="M7.89 0a7.89 7.89 0 1 0 .001 15.782A7.89 7.89 0 0 0 7.891 0zm1.643 12.229c-.406.16-.73.282-.972.366a2.564 2.564 0 0 1-.843.126c-.492 0-.874-.12-1.147-.36a1.162 1.162 0 0 1-.408-.913c0-.144.01-.29.03-.44.02-.15.053-.318.098-.507L6.8 8.705a9.26 9.26 0 0 0 .115-.488c.03-.154.045-.295.045-.423 0-.228-.047-.389-.141-.479-.096-.09-.276-.134-.544-.134-.13 0-.265.02-.404.06-.137.042-.256.08-.353.118l.134-.554c.333-.135.651-.251.955-.348.304-.097.592-.145.862-.145.488 0 .865.119 1.13.354.264.236.397.542.397.919 0 .078-.01.216-.027.412a2.758 2.758 0 0 1-.102.542l-.505 1.79a5.065 5.065 0 0 0-.112.492 2.6 2.6 0 0 0-.049.418c0 .238.053.4.16.486.105.086.29.13.552.13.124 0 .262-.022.418-.065a2.21 2.21 0 0 0 .338-.114l-.135.553zm-.09-7.267c-.235.22-.52.33-.851.33a1.22 1.22 0 0 1-.855-.33 1.05 1.05 0 0 1-.356-.796c0-.311.12-.578.356-.8a1.21 1.21 0 0 1 .855-.331c.332 0 .616.11.851.332.236.22.354.488.354.799 0 .312-.118.577-.354.796z"/></svg>