<svg xmlns="http://www.w3.org/2000/svg" viewBox="167.1 339.2 79.8 115.7"><path d="M228.944 381.67v-22.118c0-11.228-9.85-20.378-21.937-20.378s-21.937 9.15-21.937 20.378v22.118c-10.8 7.14-17.939 19.385-17.939 33.28 0 22.005 17.893 39.898 39.899 39.898s39.898-17.893 39.898-39.899c-.045-13.894-7.184-26.14-17.984-33.279zm-39.898-2.304v-19.814c0-9.037 8.043-16.402 17.938-16.402 9.896 0 17.939 7.365 17.939 16.402v19.814a50.26 50.26 0 0 1-1.13-.542c-.79-.362-1.581-.7-2.394-1.017-.52-.203-1.04-.384-1.56-.587a41.222 41.222 0 0 0-1.558-.52 56.719 56.719 0 0 0-2.644-.678c-.384-.09-.768-.158-1.152-.248a37.645 37.645 0 0 0-3.14-.475c-.249-.022-.475-.045-.723-.067-1.198-.113-2.418-.181-3.615-.181s-2.417.068-3.615.18c-.248.023-.474.046-.723.068a36.276 36.276 0 0 0-3.14.475c-.384.068-.768.158-1.152.248-.881.204-1.763.43-2.644.678-.52.158-1.039.339-1.559.52-.52.18-1.061.384-1.558.587-.814.316-1.605.655-2.395 1.017-.407.18-.791.339-1.175.542zm25.936 39.582c0 4.406-3.57 7.975-7.975 7.975s-7.975-3.57-7.975-7.975v-11.974c0-4.405 3.57-7.975 7.975-7.975s7.975 3.57 7.975 7.975v11.974z" fill="#fff"/></svg>