<svg xmlns="http://www.w3.org/2000/svg" width="140" height="99" viewBox="0 0 140 99"><g fill="#6F5AFF" opacity=".1"><path d="M80.716 81c.35 0 .7-.067 1.027-.203L111.34 68.66a2.658 2.658 0 0 0 1.456-3.483c-.568-1.363-2.147-2.003-3.516-1.445L80.716 75.448 5.38 44.552v-.885C5.38 42.195 4.175 41 2.69 41 1.206 41 0 42.195 0 43.667v2.666c0 1.08.656 2.054 1.663 2.464l78.025 32c.328.136.678.203 1.028.203zm32.004 27.92a2.685 2.685 0 0 0-3.6-1.218c-5.103 2.52-13.628 5.452-25.683 5.852v-24.08a2.687 2.687 0 0 0-5.375 0v24.056c-33.37-1.063-44.139-21.254-45.687-24.615v-18.23a2.687 2.687 0 0 0-5.375 0v18.789c0 .34.065.679.19.998C27.66 91.634 39.097 119 80.75 119c14.557 0 24.76-3.527 30.752-6.485a2.676 2.676 0 0 0 1.217-3.594z"/><path d="M159.3 40.5a2.7 2.7 0 0 0-2.7 2.7v.89l-32.4 13.336v-4.88l36.131-14.952a2.702 2.702 0 0 0 .003-4.99L82.031.204a2.702 2.702 0 0 0-2.062 0l-78.3 32.4a2.7 2.7 0 0 0 0 4.99l78.3 32.4a2.673 2.673 0 0 0 2.063 0l28.312-11.715a2.696 2.696 0 0 0 1.463-3.526 2.702 2.702 0 0 0-3.526-1.461L81 64.578 9.76 35.1 81 5.621l71.24 29.478-31 12.828-29.69-11.086c.156-.562.251-1.14.251-1.742 0-4.54-4.744-8.1-10.8-8.1-6.056 0-10.8 3.56-10.8 8.1 0 4.542 4.744 8.1 10.8 8.1 2.703 0 5.114-.737 6.988-1.925L118.8 52.78v66.518c-3.135 1.12-5.4 4.087-5.4 7.603 0 4.466 3.634 8.1 8.1 8.1 4.466 0 8.1-3.634 8.1-8.1 0-3.515-2.265-6.483-5.4-7.603v-15.325c7.751-5.851 10.53-13.644 10.651-13.989.097-.284.149-.583.149-.883V70.2a2.7 2.7 0 1 0-5.4 0v18.4c-.467 1.146-2.09 4.675-5.4 8.158V63.266l36.128-14.869A2.7 2.7 0 0 0 162 45.9v-2.7a2.7 2.7 0 0 0-2.7-2.7zM81 37.8c-3.297 0-5.4-1.6-5.4-2.7 0-1.102 2.103-2.7 5.4-2.7s5.4 1.598 5.4 2.7c0 1.101-2.104 2.7-5.4 2.7zm40.5 91.8c-1.49 0-2.7-1.213-2.7-2.7 0-1.488 1.21-2.7 2.7-2.7 1.49 0 2.7 1.212 2.7 2.7 0 1.487-1.21 2.7-2.7 2.7z"/></g></svg>