<svg xmlns="http://www.w3.org/2000/svg" width="13" height="13" viewBox="0 0 13 13"><path d="M0 9.42v3.566h3.566l7.132-7.131-3.566-3.566L0 9.42zm3.112 2.47h-.918v-1.098H1.097v-.917l.78-.78 2.015 2.014-.78.78zm4.294-8.144c.126 0 .189.063.189.189 0 .057-.02.105-.06.145L2.889 8.726a.199.199 0 0 1-.146.06c-.126 0-.189-.063-.189-.188 0-.058.02-.106.06-.146L7.26 3.806a.2.2 0 0 1 .146-.06zm5.263-1.415L10.655.326A1.065 1.065 0 0 0 9.875 0a1.02 1.02 0 0 0-.772.326L7.68 1.74l3.566 3.566 1.423-1.423a1.05 1.05 0 0 0 .317-.771c0-.298-.105-.558-.317-.78z" fill="#393649"/></svg>