<svg xmlns="http://www.w3.org/2000/svg" width="18" height="16" viewBox="0 0 18 16"><g fill="none"><path fill="#49B194" d="M16.848 14.48c-.354.61-.98.972-1.679.972H2.451A1.895 1.895 0 0 1 .792 14.5a1.924 1.924 0 0 1-.004-1.939L7.163 1.527A1.887 1.887 0 0 1 8.826.563c.696 0 1.318.362 1.663.968l6.371 11.034c.342.594.338 1.31-.012 1.915z"/><path fill="#FFF" d="M8.822 11.675c-.553 0-1.016.463-1.016 1.016 0 .553.463 1.017 1.016 1.017.533 0 1.017-.464.992-.992a.992.992 0 0 0-.992-1.041zM8.57 4.54c-.484.138-.784.577-.784 1.11.024.32.044.646.069.967l.207 3.647a.745.745 0 0 0 .76.715.76.76 0 0 0 .76-.74c0-.252 0-.483.025-.74.045-.784.094-1.569.138-2.354.025-.508.07-1.016.094-1.524 0-.183-.025-.346-.094-.508a1.019 1.019 0 0 0-1.175-.574z"/></g></svg>