<svg xmlns="http://www.w3.org/2000/svg" width="39" height="25" viewBox="0 0 39 25"><path fill="#393649" fill-rule="evenodd" d="M1.22 22.62c5.865 0 10.931-3.394 13.26-8.275a8.011 8.011 0 0 1-4.118 1.13c-4.369 0-7.928-3.471-7.928-7.738S5.993-.001 10.362-.001c4.368 0 7.921 3.471 7.921 7.738 0 .152-.005.302-.014.452.005.047.014.093.014.141 0 9.192-7.654 16.667-17.063 16.667-.678 0-1.22-.528-1.22-1.184 0-.665.542-1.193 1.22-1.193zm20.718 0c5.867 0 10.937-3.396 13.266-8.28a8.004 8.004 0 0 1-4.125 1.135c-4.368 0-7.921-3.471-7.921-7.738s3.553-7.738 7.921-7.738S39 3.47 39 7.737c0 .152-.005.302-.014.451.005.047.014.094.014.142 0 9.192-7.653 16.667-17.062 16.667-.673 0-1.221-.528-1.221-1.184 0-.665.548-1.193 1.221-1.193z"/></svg>